<svg xmlns="http://www.w3.org/2000/svg" viewBox="0 0 200.07 200.06"><defs><style>.cls-1{fill:#f39400;}.cls-1,.cls-2,.cls-3{fill-rule:evenodd;}.cls-2{fill:#3c3c3b;}.cls-3{fill:#ffd200;}</style></defs><g id="Camada_2" data-name="Camada 2"><g id="clube-logo"><path class="cls-1" d="M172,34.7c-5.7-3-12.4,5-1.7,11,17.8,10,21.2,31.3,9.3,39s-32.3-14.1-36.5-20.4c-5.8-8.6-18-2.7-13.1,7.1s60.4,25.7,42.9,72.3c-15.6,41.8-53.3,54.6-79.7,54.3a9,9,0,0,1-.9,1c-.1.2-.3.4-.4.6l-.1.1c10.9.6,24.8-.6,41.9-6.1,22.1-7.2,46.6-25.4,57.3-51.5C218.06,76,176.56,37.1,172,34.7Z"/><path class="cls-2" d="M71.56,192.4l12.8,3.1,5.7,4.1s-58.3-.3-80.7-55.5c-4-10-6.8-19.1-8-26.5-5.9-36.7,9-48.6,14.7-49.4,5.9-.8,8.7,6,3.1,11.2-6.9,6.5-12.7,17.5-4.6,25.8,8.3,8.5,24-4.4,31-5.7,3.2-.6,5.9,3,3.5,5.8-1.7,2-5.4,4.2-13.6,7.9-26.2,11.8-10.3,64.9,36.1,79.2Z"/><path class="cls-3" d="M153.06,117.1c-4.3,1.2-11.6,13.4-17.2,14.7-4.7,1.1-11.8,0-16.9,9.6-4.7,8.9-14.7,12.2-17.1,19.3-1.4,4.2,1.6,7.3,6.9,5.8,3.7-1.1,10.7-9.8,14.7-15.2,1.8,6.3,3.7,18.3-4.2,28.6-11.4,14.8-28.4,15-36.9,9.7-9.1-5.6-17.8-27.1-3.1-56.7,5.7-16,38-31.7,43.3-38.9,4.4-6-1.3-12.1-9.7-7.7-10.6,5.4-20.1,14.9-36,25.3-3.3,2.2-6.5.8-6.8-3s-4.5-40-4.5-40a4.82,4.82,0,0,0-5.3-4.3.9.9,0,0,0-.5.1,4.66,4.66,0,0,0-4.3,4.9.6.6,0,0,0,.1.4c.5,5.2,3.7,37.3,3.1,43.4S52.86,147,54,160.8s8.6,32,32.6,38.1,50-13,54.5-32.6-1.4-27.3-1.4-27.3,15-10.5,18.1-13.4c4.2-4.2-.4-9.8-4.7-8.5Z"/><path class="cls-3" d="M93.16,88.4c-1.6,5.2-6.7,8.2-11.6,6.7s-7.5-6.9-6-12.1a9.38,9.38,0,0,1,11.6-6.7c4.9,1.5,7.5,7,6,12.1Z"/><path class="cls-3" d="M127.66,123.1a8.65,8.65,0,1,1-8.7-8.7,8.62,8.62,0,0,1,8.7,8.7Z"/><path class="cls-2" d="M34.06,93.3a7.45,7.45,0,1,1-7.5-7.5,7.47,7.47,0,0,1,7.5,7.5Z"/><path class="cls-1" d="M177.26,67.9a8,8,0,1,1-8-8A8,8,0,0,1,177.26,67.9Z"/><path class="cls-2" d="M42.06,49.4a13.05,13.05,0,1,1,0-.1Z"/><path class="cls-3" d="M114.46,52.9a16.85,16.85,0,1,1-16.9-17A16.86,16.86,0,0,1,114.46,52.9Z"/><path class="cls-1" d="M148.66,41.4A11.3,11.3,0,1,1,137.36,30a11.29,11.29,0,0,1,11.3,11.4Z"/><path class="cls-3" d="M59.76,19.7a7.35,7.35,0,1,1-14.7-.1,7.35,7.35,0,0,1,14.7.1Z"/><path class="cls-2" d="M160.36,23.5a6,6,0,0,1-6.1,6,6.1,6.1,0,0,1-6-6.1,6,6,0,0,1,6.1-6,6,6,0,0,1,6,6.1Z"/><path class="cls-1" d="M149.46,103.2a9.7,9.7,0,1,1-9.7-9.8,9.71,9.71,0,0,1,9.7,9.8Z"/><path class="cls-1" d="M74.46,41.4a10.4,10.4,0,1,1-10.4-10.5A10.54,10.54,0,0,1,74.46,41.4Z"/><path class="cls-2" d="M99.86,10.8a10.7,10.7,0,1,1-21.4-.2A10.61,10.61,0,0,1,89.06,0a10.82,10.82,0,0,1,10.8,10.8Z"/><path class="cls-3" d="M135.36,11.9a7.75,7.75,0,1,1-7.7-7.8A7.73,7.73,0,0,1,135.36,11.9Z"/></g></g></svg>